<svg width="163" height="40" viewBox="0 0 163 40" fill="none" xmlns="http://www.w3.org/2000/svg">
<path d="M9.88433 0.00107225C7.66235 -0.0325178 5.5009 0.724055 3.78677 2.1354V4.78837C4.56745 3.94181 5.51411 3.26438 6.56803 2.79809C7.62194 2.3318 8.76062 2.0866 9.91343 2.0777C10.933 2.07511 11.9425 2.27842 12.8813 2.6754C13.8201 3.07237 14.6686 3.6548 15.376 4.38762C16.0833 5.12045 16.6347 5.98852 16.997 6.93959C17.3593 7.89065 17.5251 8.90505 17.4843 9.92171V16.1219C19.0208 14.4261 19.8482 12.2074 19.7963 9.92171C19.8191 8.61509 19.5785 7.31723 19.0888 6.10522C18.5991 4.89321 17.8704 3.79178 16.9458 2.86637C16.0212 1.94096 14.9196 1.21044 13.7066 0.718226C12.4935 0.226008 11.1937 -0.0178729 9.88433 0.00107225Z" fill="black"/>
<path d="M2.34188 9.74852V3.54829C0.796701 5.24077 -0.0407126 7.4593 0.00152334 9.74852C-0.0212971 11.0551 0.219275 12.353 0.708948 13.565C1.19862 14.777 1.92741 15.8785 2.852 16.8039C3.7766 17.7293 4.87815 18.4598 6.09121 18.952C7.30427 19.4442 8.60409 19.6881 9.91345 19.6692C12.1433 19.6977 14.312 18.9422 16.0397 17.5351V14.8818C15.2494 15.7239 14.2968 16.3981 13.2391 16.8639C12.1814 17.3297 11.0404 17.5775 9.88435 17.5926C8.86692 17.5922 7.86005 17.3867 6.92421 16.9883C5.98837 16.5899 5.14284 16.0069 4.4384 15.2743C3.73395 14.5417 3.18512 13.6746 2.82485 12.725C2.46458 11.7754 2.30031 10.763 2.34188 9.74852Z" fill="black"/>
<path d="M33.1326 0.319H26.4282V19.3524H28.6823V2.28016H33.1039C33.5981 2.22699 34.098 2.28107 34.5693 2.43871C35.0407 2.59635 35.4723 2.8538 35.8346 3.19344C36.1969 3.53308 36.4813 3.94688 36.6684 4.40647C36.8555 4.86606 36.9408 5.36058 36.9186 5.85615C36.9425 6.35092 36.858 6.84494 36.671 7.3038C36.484 7.76265 36.199 8.1753 35.8359 8.51299C35.4727 8.85068 35.0402 9.10529 34.5684 9.25907C34.0965 9.41286 33.5968 9.46212 33.1039 9.40343H30.0987V11.3642H33.1326C36.8895 11.3642 39.2302 9.05703 39.2302 5.82709C39.2302 2.62591 36.8895 0.319 33.1326 0.319Z" fill="black"/>
<path d="M55.3858 4.47122L57.0333 3.23084C56.4008 2.24245 55.5293 1.42864 54.4992 0.864249C53.469 0.299862 52.3132 0.00301869 51.138 0.00101792C50.4323 -0.00119864 49.7304 0.105854 49.0575 0.318359V2.45271C49.7025 2.20307 50.3885 2.07586 51.0802 2.07765C51.9419 2.08174 52.7886 2.30336 53.5414 2.72187C54.2942 3.14037 54.9287 3.74217 55.3858 4.47122Z" fill="black"/>
<path d="M52.8143 9.05682L50.7047 8.04698C48.9706 7.21107 47.6414 6.57639 47.6414 4.55781V0.981819C46.9299 1.38263 46.3381 1.96513 45.9267 2.66954C45.5153 3.37396 45.2991 4.17493 45.3003 4.99026C45.3003 7.67222 47.3812 8.99871 49.6062 10.0659L51.7446 11.0753C53.6232 11.9693 54.9237 12.6614 54.9237 14.709V18.602C55.6512 18.1614 56.2502 17.5381 56.6609 16.7942C57.0717 16.0504 57.2797 15.2121 57.2644 14.3629C57.2644 11.7965 55.6172 10.3829 52.8143 9.05682Z" fill="black"/>
<path d="M45.7631 14.3339L44.0868 15.574C44.7804 16.8109 45.7907 17.8418 47.0143 18.5613C48.238 19.2808 49.6312 19.6631 51.0514 19.6692C51.8872 19.6734 52.7176 19.5369 53.5079 19.2654V17.1601C52.7274 17.4343 51.9075 17.5803 51.0802 17.5926C49.9879 17.5518 48.9246 17.2304 47.9932 16.6596C47.0617 16.0887 46.2936 15.2877 45.7631 14.3339Z" fill="black"/>
<path d="M61.6614 0.351807L68.9151 19.7022H69.7236L70.5322 17.7402L64.1465 0.351807H61.6614Z" fill="black"/>
<path d="M82.8437 12.8676L84.0574 15.8377L89.8362 0.351807H87.3808L82.8437 12.8676Z" fill="black"/>
<path d="M75.3586 0.0326996L70.2444 12.8075L71.3126 15.7496L75.762 4.61824L81.8021 19.7015H82.6404L83.3051 17.8551L76.1671 0.0326996H75.3586Z" fill="black"/>
<path d="M96.7179 13.5004L99.752 6.46454L98.5681 3.66602L91.8634 19.3829H94.2328L95.8515 15.5185H103.654L102.788 13.5004H96.7179Z" fill="black"/>
<path d="M100.129 0.0326996L99.3188 1.84942L106.832 19.383H109.231L100.967 0.0326996H100.129Z" fill="black"/>
<path d="M126.108 0.350891H110.416V2.36947H126.108V0.350891Z" fill="black"/>
<path d="M119.374 3.78167H117.12V19.3833H119.374V3.78167Z" fill="black"/>
<path d="M126.133 16.768C125.831 16.7599 125.533 16.8419 125.278 17.0035C125.022 17.1652 124.821 17.3991 124.7 17.6754C124.578 17.9517 124.542 18.2579 124.596 18.5548C124.65 18.8517 124.791 19.1259 125.002 19.3423C125.212 19.5587 125.483 19.7075 125.779 19.7697C126.075 19.8319 126.382 19.8047 126.663 19.6915C126.943 19.5783 127.183 19.3844 127.352 19.1343C127.522 18.8843 127.612 18.5896 127.613 18.2879C127.616 17.8914 127.462 17.5097 127.185 17.2253C126.908 16.9409 126.53 16.7766 126.133 16.768Z" fill="black"/>
<path d="M5.87543 36.0278L3.06956 30.1389H2V39.8611H3.05567V32.3889L5.37538 37.25H6.37549L8.69519 32.3889V39.8611H9.75087V30.1389H8.6813L5.87543 36.0278Z" fill="#2672FB"/>
<path d="M14.7205 39C13.7898 39 12.9564 38.4028 12.9564 37.2083V36.5139H17.5264V35.3056C17.5264 33.1944 16.054 32.5 14.7205 32.5C13.387 32.5 11.9146 33.1944 11.9146 35.3056V37.1944C11.9146 39.3056 13.387 40 14.7205 40C15.9706 40 17.3319 39.4028 17.5125 37.6111H16.4429C16.2762 38.5417 15.54 39 14.7205 39ZM16.4846 35.5556H12.9564V35.2917C12.9564 34.0972 13.7898 33.5 14.7205 33.5C15.6512 33.5 16.4846 34.0972 16.4846 35.2917V35.5556Z" fill="#2672FB"/>
<path d="M20.9363 33.6944H22.7003V32.6944H20.9363V31.0694H19.8945V32.6944H18.8805V33.6944H19.8945V38.1528C19.8945 39.375 20.2695 39.8611 21.603 39.8611H22.7003V38.8611H21.603C21.1029 38.8611 20.9363 38.6944 20.9363 38.2361V33.6944Z" fill="#2672FB"/>
<path d="M27.0317 33.5C27.9623 33.5 28.7958 34.0972 28.7958 35.2917V35.4167C27.5873 35.5 26.5594 35.5833 25.7399 35.8194C24.4897 36.1806 24.1841 37.1528 24.1841 37.875C24.1841 39.3472 25.337 40 26.5594 40C27.5317 40 28.3374 39.7222 28.7958 39.125V39.8611H29.8375V35.3056C29.8375 33.1944 28.3651 32.5 27.0317 32.5C25.7815 32.5 24.4203 33.0972 24.2397 34.8889H25.3092C25.4759 33.9583 26.2121 33.5 27.0317 33.5ZM28.7958 37.2778C28.7958 38.4028 27.9068 39 26.7816 39C25.726 39 25.2259 38.5 25.2259 37.8472C25.2259 37.4306 25.3231 37.1111 25.851 36.8194C26.3371 36.5556 27.2261 36.4583 28.7958 36.3472V37.2778Z" fill="#2672FB"/>
<path d="M32.1065 30.1389V39.8611H35.2457C37.107 39.8611 38.3849 38.6111 38.3849 36.5694V33.4306C38.3849 31.3889 37.107 30.1389 35.2457 30.1389H32.1065ZM35.2457 31.1944C36.3986 31.2083 37.3154 31.9583 37.3154 33.4306V36.5694C37.3154 38.0417 36.3986 38.8056 35.2457 38.8056H33.176V31.1944H35.2457Z" fill="#2672FB"/>
<path d="M43.0635 39C42.1329 39 41.2994 38.4028 41.2994 37.2083V36.5139H45.8694V35.3056C45.8694 33.1944 44.397 32.5 43.0635 32.5C41.73 32.5 40.2576 33.1944 40.2576 35.3056V37.1944C40.2576 39.3056 41.73 40 43.0635 40C44.3137 40 45.6749 39.4028 45.8555 37.6111H44.7859C44.6192 38.5417 43.8831 39 43.0635 39ZM44.8276 35.5556H41.2994V35.2917C41.2994 34.0972 42.1329 33.5 43.0635 33.5C43.9942 33.5 44.8276 34.0972 44.8276 35.2917V35.5556Z" fill="#2672FB"/>
<path d="M51.0711 31.1389V30.1389H49.9738C48.6403 30.1389 48.2653 30.625 48.2653 31.8472V32.6944H47.2513V33.6944H48.2653V39.8611H49.3071V33.6944H51.0711V32.6944H49.3071V31.7639C49.3071 31.3056 49.4737 31.1389 49.9738 31.1389H51.0711Z" fill="#2672FB"/>
<path d="M55.0375 39C54.1069 39 53.2734 38.4028 53.2734 37.2083V36.5139H57.8434V35.3056C57.8434 33.1944 56.371 32.5 55.0375 32.5C53.704 32.5 52.2316 33.1944 52.2316 35.3056V37.1944C52.2316 39.3056 53.704 40 55.0375 40C56.2877 40 57.6489 39.4028 57.8295 37.6111H56.7599C56.5932 38.5417 55.857 39 55.0375 39ZM56.8016 35.5556H53.2734V35.2917C53.2734 34.0972 54.1069 33.5 55.0375 33.5C55.9682 33.5 56.8016 34.0972 56.8016 35.2917V35.5556Z" fill="#2672FB"/>
<path d="M62.684 32.5C62.0311 32.5 61.2811 32.7917 60.9199 33.375V32.6944H59.8781V39.8611H60.9199V35.2917C60.9199 34.0972 61.7533 33.5 62.684 33.5C63.6146 33.5 64.4481 34.0972 64.4481 35.2917V39.8611H65.4899V35.3056C65.4899 33.1944 64.0175 32.5 62.684 32.5Z" fill="#2672FB"/>
<path d="M70.2942 40C70.9471 40 71.6972 39.7083 72.0583 39.125V39.8611H73.1001V30.1389H72.0583V33.375C71.6972 32.7917 70.9471 32.5 70.2942 32.5C68.9607 32.5 67.4883 33.1944 67.4883 35.3056V37.1944C67.4883 39.3056 68.9607 40 70.2942 40ZM68.5301 35.2917C68.5301 34.0972 69.3635 33.5 70.2942 33.5C71.2249 33.5 72.0583 34.0972 72.0583 35.2917V37.2083C72.0583 38.4028 71.2249 39 70.2942 39C69.3635 39 68.5301 38.4028 68.5301 37.2083V35.2917Z" fill="#2672FB"/>
<path d="M78.004 39C77.0733 39 76.2399 38.4028 76.2399 37.2083V36.5139H80.8098V35.3056C80.8098 33.1944 79.3374 32.5 78.004 32.5C76.6705 32.5 75.1981 33.1944 75.1981 35.3056V37.1944C75.1981 39.3056 76.6705 40 78.004 40C79.2541 40 80.6153 39.4028 80.7959 37.6111H79.7264C79.5597 38.5417 78.8235 39 78.004 39ZM79.768 35.5556H76.2399V35.2917C76.2399 34.0972 77.0733 33.5 78.004 33.5C78.9346 33.5 79.768 34.0972 79.768 35.2917V35.5556Z" fill="#2672FB"/>
<path d="M83.8863 32.6944H82.8446V39.8611H83.8863V35.3611C83.8863 34.1667 84.7198 33.5694 85.6504 33.5694H86.1088V32.5694H85.6504C84.9976 32.5694 84.2475 32.8611 83.8863 33.4444V32.6944Z" fill="#2672FB"/>
<path d="M90.9949 30.1389V39.8611H94.1341C95.9954 39.8611 97.2734 38.6111 97.2734 36.5694V33.4306C97.2734 31.3889 95.9954 30.1389 94.1341 30.1389H90.9949ZM94.1341 31.1944C95.287 31.2083 96.2038 31.9583 96.2038 33.4306V36.5694C96.2038 38.0417 95.287 38.8056 94.1341 38.8056H92.0644V31.1944H94.1341Z" fill="#2672FB"/>
<path d="M100.382 32.6944H99.3405V39.8611H100.382V35.3611C100.382 34.1667 101.216 33.5694 102.146 33.5694H102.605V32.5694H102.146C101.494 32.5694 100.743 32.8611 100.382 33.4444V32.6944Z" fill="#2672FB"/>
<path d="M105.135 30.1389H104.093V31.4861H105.135V30.1389ZM105.135 32.6944H104.093V39.8611H105.135V32.6944Z" fill="#2672FB"/>
<path d="M112.797 32.6944H111.686L109.63 38.5139L107.574 32.6944H106.463L109.047 39.8611H110.213L112.797 32.6944Z" fill="#2672FB"/>
<path d="M116.712 39C115.781 39 114.948 38.4028 114.948 37.2083V36.5139H119.518V35.3056C119.518 33.1944 118.045 32.5 116.712 32.5C115.378 32.5 113.906 33.1944 113.906 35.3056V37.1944C113.906 39.3056 115.378 40 116.712 40C117.962 40 119.323 39.4028 119.504 37.6111H118.434C118.267 38.5417 117.531 39 116.712 39ZM118.476 35.5556H114.948V35.2917C114.948 34.0972 115.781 33.5 116.712 33.5C117.642 33.5 118.476 34.0972 118.476 35.2917V35.5556Z" fill="#2672FB"/>
<path d="M127.492 40C129.437 40 130.437 38.9583 130.437 37.4028C130.437 35.8611 129.548 35.0139 128.173 34.625L127.034 34.3056C126.033 34.0278 125.589 33.4722 125.589 32.5833C125.589 31.7361 126.214 31.0556 127.381 31.0556C128.423 31.0556 129.006 31.6667 129.214 32.5972H130.312C130.103 30.9444 129.062 30 127.381 30C125.825 30 124.505 30.9167 124.505 32.5833C124.505 33.7639 125.103 34.9444 126.547 35.3472L127.784 35.6944C128.881 36 129.353 36.5278 129.353 37.4028C129.353 38.4306 128.589 38.9444 127.492 38.9444C126.45 38.9444 125.603 38.2361 125.436 36.9861H124.339C124.478 38.8472 125.728 40 127.492 40Z" fill="#2672FB"/>
<path d="M134.876 39C133.945 39 133.112 38.4028 133.112 37.2083V36.5139H137.682V35.3056C137.682 33.1944 136.21 32.5 134.876 32.5C133.543 32.5 132.07 33.1944 132.07 35.3056V37.1944C132.07 39.3056 133.543 40 134.876 40C136.126 40 137.487 39.4028 137.668 37.6111H136.599C136.432 38.5417 135.696 39 134.876 39ZM136.64 35.5556H133.112V35.2917C133.112 34.0972 133.945 33.5 134.876 33.5C135.807 33.5 136.64 34.0972 136.64 35.2917V35.5556Z" fill="#2672FB"/>
<path d="M140.758 32.6944H139.717V39.8611H140.758V35.3611C140.758 34.1667 141.592 33.5694 142.523 33.5694H142.981V32.5694H142.523C141.87 32.5694 141.12 32.8611 140.758 33.4444V32.6944Z" fill="#2672FB"/>
<path d="M149.981 32.6944H148.869L146.814 38.5139L144.758 32.6944H143.646L146.23 39.8611H147.397L149.981 32.6944Z" fill="#2672FB"/>
<path d="M153.895 39C152.964 39 152.131 38.4028 152.131 37.2083V36.5139H156.701V35.3056C156.701 33.1944 155.229 32.5 153.895 32.5C152.562 32.5 151.089 33.1944 151.089 35.3056V37.1944C151.089 39.3056 152.562 40 153.895 40C155.145 40 156.507 39.4028 156.687 37.6111H155.618C155.451 38.5417 154.715 39 153.895 39ZM155.659 35.5556H152.131V35.2917C152.131 34.0972 152.964 33.5 153.895 33.5C154.826 33.5 155.659 34.0972 155.659 35.2917V35.5556Z" fill="#2672FB"/>
<path d="M159.778 32.6944H158.736V39.8611H159.778V35.3611C159.778 34.1667 160.611 33.5694 161.542 33.5694H162V32.5694H161.542C160.889 32.5694 160.139 32.8611 159.778 33.4444V32.6944Z" fill="#2672FB"/>
</svg>
